<?xml version="1.0" encoding="utf-8"?>
<!-- Generator: Adobe Illustrator 23.0.6, SVG Export Plug-In . SVG Version: 6.00 Build 0)  -->
<svg version="1.1" id="Layer_1" xmlns="http://www.w3.org/2000/svg" xmlns:xlink="http://www.w3.org/1999/xlink" x="0px" y="0px"
	 viewBox="0 0 255.6 49.1" style="enable-background:new 0 0 255.6 49.1;" xml:space="preserve">
<style type="text/css">
	.st0{clip-path:url(#SVGID_2_);}
	.st1{clip-path:url(#SVGID_4_);fill-rule:evenodd;clip-rule:evenodd;fill:#FFFFFF;}
</style>
<g id="Artwork_4_1_">
	<g>
		<defs>
			<rect id="SVGID_1_" x="5" y="11.2" width="240.8" height="26.7"/>
		</defs>
		<clipPath id="SVGID_2_">
			<use xlink:href="#SVGID_1_"  style="overflow:visible;"/>
		</clipPath>
		<g class="st0">
			<defs>
				<rect id="SVGID_3_" x="5" y="11.2" width="240.8" height="26.7"/>
			</defs>
			<clipPath id="SVGID_4_">
				<use xlink:href="#SVGID_3_"  style="overflow:visible;"/>
			</clipPath>
			<path class="st1" d="M143.6,11.6h1.8v25.8h-1.8V11.6z M156,36.5v-2c1.8,1.2,3.7,1.8,5.6,1.8c2,0,3.6-0.4,4.6-1.3
				c1-0.8,1.6-2,1.6-3.5c0-1.3-0.4-2.4-1.1-3.2c-0.7-0.8-2.2-1.9-4.6-3.2c-2.6-1.5-4.3-2.8-5-3.8c-0.7-1-1-2.2-1-3.6
				c0-1.8,0.7-3.4,2.1-4.7s3.3-1.9,5.7-1.9c1.5,0,3.1,0.3,4.6,0.8v1.9c-1.5-0.7-3.1-1-4.8-1c-1.8,0-3.1,0.4-4.2,1.3
				c-1,0.9-1.5,2-1.5,3.4c0,1.3,0.4,2.4,1.1,3.2c0.7,0.8,2.2,1.8,4.6,3.2c2.4,1.4,4,2.6,4.8,3.6c0.8,1.1,1.2,2.3,1.2,3.7
				c0,2-0.7,3.6-2.1,4.8c-1.4,1.2-3.3,1.9-5.8,1.9c-0.9,0-1.9-0.1-3.1-0.4C157.5,37.2,156.7,36.9,156,36.5 M180,11.6h1.8v25.8H180
				V11.6z M203.9,37.9c-3.7,0-6.6-1.2-8.7-3.6c-2.2-2.4-3.3-5.6-3.3-9.5c0-4.1,1.1-7.4,3.3-9.9c2.2-2.5,5.3-3.7,9.1-3.7
				c3.5,0,6.3,1.2,8.5,3.6c2.2,2.4,3.2,5.5,3.2,9.4c0,4.3-1.1,7.6-3.3,10.1C210.6,36.7,207.6,37.9,203.9,37.9 M204.1,12.8
				c-3,0-5.5,1.1-7.4,3.3c-1.9,2.2-2.9,5-2.9,8.6c0,3.6,0.9,6.4,2.8,8.5c1.8,2.1,4.3,3.2,7.4,3.2c3.2,0,5.7-1,7.6-3.1
				c1.9-2.1,2.8-5,2.8-8.7c0-3.7-0.9-6.5-2.7-8.6C209.7,13.8,207.2,12.8,204.1,12.8 M244.5,37.5l-15.4-20.9
				c-0.3-0.4-0.6-0.8-0.8-1.3l-0.2-0.4H228c0,0.3,0,0.7,0,1.1v21.4h-1.8V11.6h1.4l15.3,20.7c0.3,0.5,0.7,1,1.1,1.7h0.1
				c-0.1-0.8-0.1-1.6-0.1-2.2V11.6h1.8v25.8H244.5z"/>
			<path class="st1" d="M5,36.5v-2c1.8,1.2,3.7,1.8,5.6,1.8c2,0,3.6-0.4,4.6-1.3c1-0.8,1.6-2,1.6-3.5c0-1.3-0.4-2.4-1.1-3.2
				c-0.7-0.8-2.2-1.9-4.6-3.2c-2.6-1.5-4.3-2.8-5-3.8c-0.7-1-1-2.2-1-3.6c0-1.8,0.7-3.4,2.1-4.7s3.3-1.9,5.7-1.9
				c1.5,0,3.1,0.3,4.6,0.8v1.9c-1.5-0.7-3.1-1-4.8-1c-1.8,0-3.1,0.4-4.2,1.3c-1,0.9-1.5,2-1.5,3.4c0,1.3,0.4,2.4,1.1,3.2
				c0.7,0.8,2.2,1.8,4.6,3.2c2.4,1.4,4,2.6,4.8,3.6c0.8,1.1,1.2,2.3,1.2,3.7c0,2-0.7,3.6-2.1,4.8c-1.4,1.2-3.3,1.9-5.8,1.9
				c-0.9,0-1.9-0.1-3.1-0.4C6.5,37.2,5.6,36.9,5,36.5 M30.8,27.1v10.4H29V11.6h6.2c2.7,0,4.7,0.6,6.1,1.8c1.4,1.2,2.1,3,2.1,5.4
				c0,2.4-0.8,4.4-2.4,5.9c-1.6,1.5-3.8,2.3-6.6,2.3H30.8z M30.8,13.3v12.2h3.7c2.3,0,4.1-0.6,5.3-1.7c1.2-1.1,1.8-2.7,1.8-4.7
				c0-3.9-2.2-5.8-6.7-5.8H30.8z M53.2,11.6H55v25.8h-1.8V11.6z M80.4,37.5L77,29.9c-0.7-1.6-1.4-2.6-2.1-3.2
				c-0.7-0.5-1.6-0.8-2.7-0.8H69v11.5h-1.8V11.6h7.2c2.3,0,4.1,0.6,5.4,1.8c1.3,1.2,2,2.9,2,4.9c0,1.9-0.5,3.4-1.6,4.7
				c-1.1,1.2-2.6,2-4.5,2.4v0.1c1,0.4,2,1.6,3,3.7l3.8,8.2H80.4z M69,13.3v11.1h4.5c2,0,3.5-0.5,4.7-1.6c1.2-1,1.7-2.5,1.7-4.3
				c0-1.6-0.5-2.9-1.6-3.9c-1-0.9-2.5-1.4-4.5-1.4H69z M92.5,37.5V11.6h12.1v1.6H94.3v10.4h9.6v1.6h-9.6v10.6h10.9v1.6H92.5z"/>
			<path class="st1" d="M113.8,11.6h10.5h10.5c-1.7,4.3-3.5,8.7-5.2,13c-1.7,4.3-3.5,8.7-5.2,13c-1.7-4.3-3.5-8.7-5.2-13
				C117.3,20.3,115.5,16,113.8,11.6 M116.2,13.2c1.3,3.3,2.7,6.6,4,9.9s2.7,6.6,4,9.9c1.3-3.3,2.7-6.6,4-9.9s2.7-6.6,4-9.9h-8H116.2
				z"/>
		</g>
	</g>
</g>
</svg>
